<?xml version="1.0" encoding="UTF-8"?>
<svg version="1.1" viewBox="0 0 100 100" xmlns="http://www.w3.org/2000/svg">
 <g>
  <rect x="0" y="0" width="100" height="100" fill="#ccc"/>
  <path d="m74 25a0.92 0.92 0 0 0-0.058 3e-3l-33 2.7a1.1 1.1 0 0 0-1 1.1v30a10 8.8 0 0 0-5-1.2 10 8.8 0 0 0-10 8.8 10 8.8 0 0 0 10 8.8 10 8.8 0 0 0 10-8.8v-29a1.1 1.1 0 0 1 0.99-1.1l23-2.6a1.2 1.2 0 0 1 1.3 1.2v21a10 8.8 0 0 0-5-1.2 10 8.8 0 0 0-10 8.8 10 8.8 0 0 0 10 8.8 10 8.8 0 0 0 10-8.8v-38a0.92 0.92 0 0 0-0.94-0.92z"/>
 </g>
</svg>
