<?xml version="1.0" encoding="UTF-8" standalone="no"?>
<svg
   xmlns:dc="http://purl.org/dc/elements/1.1/"
   xmlns:cc="http://creativecommons.org/ns#"
   xmlns:rdf="http://www.w3.org/1999/02/22-rdf-syntax-ns#"
   xmlns:svg="http://www.w3.org/2000/svg"
   xmlns="http://www.w3.org/2000/svg"
   xmlns:sodipodi="http://sodipodi.sourceforge.net/DTD/sodipodi-0.dtd"
   xmlns:inkscape="http://www.inkscape.org/namespaces/inkscape"
   width="100"
   height="100"
   viewBox="0 0 100 100"
   version="1.1"
   id="svg8"
   inkscape:version="1.0.2 (e86c870879, 2021-01-15)"
   sodipodi:docname="logo.inkscape.svg">
  <defs
     id="defs2">
    <inkscape:path-effect
       effect="fillet_chamfer"
       id="path-effect887"
       is_visible="true"
       lpeversion="1"
       satellites_param="F,0,0,1,0,2,0,2 @ F,0,0,1,0,2,0,2 @ F,0,0,1,0,2,0,2 @ F,0,0,1,0,2,0,2 @ F,0,0,1,0,2,0,2 @ F,0,0,1,0,2,0,2 @ F,0,0,1,0,2,0,2 @ F,0,0,1,0,2,0,2 @ F,0,0,1,0,2,0,2 @ F,0,0,1,0,2,0,2 @ F,0,0,1,0,2,0,2 @ F,0,0,1,0,2,0,2 @ F,0,0,1,0,2,0,2 @ F,0,0,1,0,2,0,2 @ F,0,0,1,0,2,0,2 @ F,0,0,1,0,2,0,2 @ F,0,0,1,0,2,0,2 @ F,0,0,1,0,2,0,2 @ F,0,0,1,0,2,0,2 @ F,0,0,1,0,0.024344224,0,2 @ F,0,0,1,0,2,0,2 @ F,0,0,1,0,2,0,2 @ F,0,0,1,0,2,0,2"
       unit="px"
       method="auto"
       mode="F"
       radius="2"
       chamfer_steps="1"
       flexible="false"
       use_knot_distance="true"
       apply_no_radius="true"
       apply_with_radius="true"
       only_selected="false"
       hide_knots="false" />
    <inkscape:path-effect
       effect="fillet_chamfer"
       id="path-effect882"
       is_visible="true"
       lpeversion="1"
       satellites_param="F,0,0,1,0,2,0,2 @ F,0,0,1,0,2.0000008,0,2 @ F,0,0,1,0,2.0000005,0,2 @ F,0,0,1,0,1.9999922,0,2 @ F,0,0,1,0,2.0000005,0,2 @ F,0,0,1,0,2,0,2 @ F,0,0,1,0,2.0019293,0,2 @ F,0,0,1,0,2.0001042,0,2 @ F,0,0,1,0,2,0,2 @ F,0,0,1,0,2.0005491,0,2 @ F,0,0,1,0,2.0000001,0,2 @ F,0,0,1,0,2,0,2"
       unit="px"
       method="auto"
       mode="F"
       radius="2"
       chamfer_steps="1"
       flexible="false"
       use_knot_distance="true"
       apply_no_radius="true"
       apply_with_radius="true"
       only_selected="false"
       hide_knots="false" />
    <inkscape:path-effect
       effect="fillet_chamfer"
       id="path-effect879"
       is_visible="true"
       lpeversion="1"
       satellites_param="F,0,0,1,0,2,0,2 @ F,0,0,1,0,2.0000008,0,2 @ F,0,0,1,0,2.0000005,0,2 @ F,0,0,1,0,1.9999922,0,2 @ F,0,0,1,0,2.0000005,0,2 @ F,0,0,1,0,2,0,2 @ F,0,0,1,0,2.0019293,0,2 @ F,0,0,1,0,2.0001042,0,2 @ F,0,0,1,0,2,0,2 @ F,0,0,1,0,2.0005491,0,2 @ F,0,0,1,0,2.0000001,0,2 @ F,0,0,1,0,2,0,2"
       unit="px"
       method="auto"
       mode="F"
       radius="2"
       chamfer_steps="1"
       flexible="false"
       use_knot_distance="true"
       apply_no_radius="true"
       apply_with_radius="true"
       only_selected="false"
       hide_knots="false" />
  </defs>
  <sodipodi:namedview
     id="base"
     pagecolor="#ffffff"
     bordercolor="#666666"
     borderopacity="1.0"
     inkscape:pageopacity="0.0"
     inkscape:pageshadow="2"
     inkscape:zoom="11.313708"
     inkscape:cx="49.522829"
     inkscape:cy="47.195216"
     inkscape:document-units="px"
     inkscape:current-layer="layer1"
     inkscape:document-rotation="0"
     showgrid="true"
     units="px"
     inkscape:pagecheckerboard="false"
     inkscape:window-width="2560"
     inkscape:window-height="1376"
     inkscape:window-x="1920"
     inkscape:window-y="27"
     inkscape:window-maximized="1" />
  <metadata
     id="metadata5">
    <rdf:RDF>
      <cc:Work
         rdf:about="">
        <dc:format>image/svg+xml</dc:format>
        <dc:type
           rdf:resource="http://purl.org/dc/dcmitype/StillImage" />
        <dc:title />
      </cc:Work>
    </rdf:RDF>
  </metadata>
  <g
     inkscape:label="Layer 1"
     inkscape:groupmode="layer"
     id="layer1">
    <g
       id="g859">
      <circle
         style="opacity:1;fill:#1a202c;fill-opacity:1;stroke-width:1.00104;paint-order:markers fill stroke"
         id="path833"
         cx="50"
         cy="50"
         r="50" />
      <circle
         style="fill:#edf2f7;fill-opacity:1;stroke-width:0.800832;paint-order:markers fill stroke"
         id="path833-3"
         cx="50"
         cy="50"
         r="40" />
    </g>
    <path
       id="path868"
       style="fill:#1a202c;fill-opacity:1;stroke:none;stroke-width:0.999995px;stroke-linecap:butt;stroke-linejoin:miter;stroke-opacity:1"
       d="m 27.126099,22.0075 v 36.572074 c 0,1.104569 -0.871773,1.785402 -1.965597,1.634695 -0.343502,-0.04733 -0.689392,-0.08661 -1.037033,-0.117771 -1.099792,-0.09858 -2.894868,-0.09886 -3.994758,-0.0013 -6.363193,0.564486 -11.4657265,3.788358 -12.7110671,7.94059 -0.3161912,1.054249 -0.3161912,2.888687 -1e-7,3.942936 1.2453402,4.152232 6.3478742,7.376104 12.7110662,7.94059 1.099891,0.09757 2.894941,0.09757 3.994831,0 6.363193,-0.564486 11.465728,-3.788357 12.711068,-7.94059 0.316191,-1.054249 0.291436,-2.866899 0.291436,-3.971468 V 33.56018 c 0,-1.104569 0.754599,-1.512771 1.607231,-0.81149 0.84247,0.692924 1.89656,1.668565 2.858104,2.87287 0.688043,0.861754 1.596748,2.414313 2.010013,3.437505 0.769436,1.905021 1.378949,4.242161 1.753888,5.862222 0.24896,1.075718 1.312634,1.955227 2.417203,1.955227 h 4.453079 c 1.104569,0 2.168297,-0.879792 2.417347,-1.955853 0.374991,-1.620205 0.984534,-3.957306 1.753983,-5.862191 0.413165,-1.022851 1.322147,-2.575874 2.010997,-3.438261 0.96219,-1.204588 2.017086,-2.180319 2.859936,-2.873079 0.852093,-0.700358 1.606128,-0.291519 1.606128,0.81305 l 0,34.447083 c 0,1.104569 -0.02475,2.917219 0.291436,3.971468 1.24534,4.152232 6.347874,7.376104 12.711067,7.94059 1.099891,0.09757 2.894941,0.09757 3.994831,0 6.363193,-0.564486 11.465728,-3.788357 12.711068,-7.94059 0.316191,-1.054249 0.316191,-2.888687 0,-3.942936 -1.24534,-4.152232 -6.347874,-7.376104 -12.711067,-7.94059 -1.099891,-0.09757 -2.894968,-0.09729 -3.994761,0.0013 -0.347641,0.03116 -0.693532,0.07044 -1.037033,0.117771 C 73.745672,60.364977 72.8739,59.684143 72.8739,58.579574 V 22.0075 a 2,2 45 0 0 -2,-2 h -5.999946 c -1.104569,0 -2.902468,0.133577 -3.899805,0.597284 -2.11095,0.981475 -5.813067,3.569998 -10.247118,10.386318 -0.0073,0.01118 -0.01911,0.02939 -0.02642,0.04067 -0.409417,0.631957 -0.998772,0.622206 -1.416429,-0.02042 C 44.223828,23.749671 40.957927,21.503696 39.025599,20.604941 38.028423,20.141139 36.230614,20.0075 35.126045,20.0075 h -5.999946 a 2,2 135 0 0 -2,2 z"
       inkscape:original-d="M 27.126099,20.0075 V 60.579574 A 15.000044,9.9999526 0 0 0 22.126126,60.00731 15.000044,9.9999526 0 0 0 7.1262082,70.007263 15.000044,9.9999526 0 0 0 22.126126,80.007216 15.000044,9.9999526 0 0 0 37.126045,70.007263 V 31.56018 c 0,0 3.508927,2.191132 5.607392,5.699191 1.805629,3.018515 3.039047,9.617143 3.039047,9.617143 h 8.453079 c 0,0 1.233418,-6.598628 3.039046,-9.617143 2.098466,-3.508059 5.609345,-5.699191 5.609345,-5.699191 V 70.007263 A 15.000044,9.9999526 0 0 0 77.873873,80.007216 15.000044,9.9999526 0 0 0 92.873792,70.007263 15.000044,9.9999526 0 0 0 77.873873,60.00731 15.000044,9.9999526 0 0 0 72.8739,60.579574 V 20.0075 h -9.999946 c 0,0 -5.172956,0.253081 -12.160091,11.003854 -0.251321,0.386697 -0.487801,0.785609 -0.71484,1.189447 -0.226899,-0.403551 -0.46369,-0.803016 -0.71484,-1.189447 C 42.297049,20.260581 37.126045,20.0075 37.126045,20.0075 Z"
       inkscape:path-effect="#path-effect887" />
  </g>
</svg>
